<?xml version="1.0" encoding="UTF-8" standalone="no"?>
<!DOCTYPE svg PUBLIC "-//W3C//DTD SVG 1.1//EN" "http://www.w3.org/Graphics/SVG/1.1/DTD/svg11.dtd">
<svg width="100%" height="100%" viewBox="0 0 700 700" version="1.1" xmlns="http://www.w3.org/2000/svg" xmlns:xlink="http://www.w3.org/1999/xlink" xml:space="preserve" xmlns:serif="http://www.serif.com/" style="fill-rule:evenodd;clip-rule:evenodd;stroke-linejoin:round;stroke-miterlimit:2;">
    <g>
        <path id="Rounded-Rectangle-3" serif:id="Rounded Rectangle 3" d="M521.055,520.874C520.686,520.89 520.316,520.898 519.943,520.898L25.18,520.898C11.283,520.898 0,509.616 0,495.719L0,204.281C0,190.384 11.283,179.102 25.18,179.102L519.943,179.102C520.316,179.102 520.686,179.11 521.055,179.126C522.062,179.11 523.06,179.102 524.06,179.102C621.164,179.102 700,255.679 700,350C700,444.321 621.164,520.898 524.06,520.898C523.06,520.898 522.062,520.89 521.055,520.874ZM198.595,230.798C204.154,230.798 208.667,235.311 208.667,240.87L208.667,274.987C208.667,280.546 204.154,285.059 198.595,285.059L116.766,285.059L116.766,318.469L177.431,318.469C183.116,318.469 187.732,323.085 187.732,328.771L187.732,362.385C187.732,368.071 183.116,372.687 177.431,372.687L116.766,372.687L116.766,456.831C116.766,463.399 111.434,468.732 104.866,468.732L66.033,468.732C59.465,468.732 54.132,463.399 54.132,456.831L54.132,242.699C54.132,236.131 59.465,230.798 66.033,230.798L198.595,230.798ZM426.344,405.364C446.052,441.65 484.571,465.799 528.433,465.799C592.085,465.799 644.485,414.944 644.485,349.926C644.485,284.586 592.085,233.731 528.433,233.731C484.571,233.731 446.052,257.88 426.344,294.271C406.636,257.88 368.116,233.731 324.254,233.731C260.602,233.731 208.202,284.586 208.202,349.926C208.202,414.944 260.602,465.799 324.254,465.799C368.116,465.799 406.636,441.65 426.344,405.364ZM528.433,410.759C494.679,410.759 468.961,384.688 468.961,349.926C468.961,314.842 494.679,288.771 528.433,288.771C562.188,288.771 587.584,314.842 587.584,349.926C587.584,384.688 562.188,410.759 528.433,410.759ZM324.254,410.759C290.499,410.759 264.781,384.688 264.781,349.926C264.781,314.842 290.499,288.771 324.254,288.771C358.009,288.771 383.405,314.842 383.405,349.926C383.405,384.688 358.009,410.759 324.254,410.759Z"/>
    </g>
</svg>
