<?xml version="1.0" encoding="UTF-8" standalone="no"?>
<!DOCTYPE svg PUBLIC "-//W3C//DTD SVG 1.1//EN" "http://www.w3.org/Graphics/SVG/1.1/DTD/svg11.dtd">
<svg width="100%" height="100%" viewBox="0 0 40 40" version="1.1" xmlns="http://www.w3.org/2000/svg" xmlns:xlink="http://www.w3.org/1999/xlink" xml:space="preserve" xmlns:serif="http://www.serif.com/" style="fill-rule:evenodd;clip-rule:evenodd;stroke-linejoin:round;stroke-miterlimit:2;">
    <path d="M0,4C0,1.791 1.791,0 4,0L36,0C38.209,0 40,1.791 40,4L40,36C40,38.209 38.209,40 36,40L4,40C1.791,40 0,38.209 0,36L0,4Z" style="fill:rgb(240,240,240);fill-rule:nonzero;"/>
    <g transform="matrix(0.9375,0,0,0.9375,5,-2.67578)">
        <g id="Rounded-Rectangle-3" serif:id="Rounded Rectangle 3" transform="matrix(0.03125,0,0,0.03125,0,0)">
            <path d="M762.229,761.964C761.69,761.988 761.148,762 760.603,762L36.835,762C16.505,762 0,745.495 0,725.165L0,298.835C0,278.505 16.505,262 36.835,262L760.603,262C761.148,262 761.69,262.012 762.229,262.036C763.702,262.012 765.162,262 766.625,262C908.674,262 1024,374.021 1024,512C1024,649.979 908.674,762 766.625,762C765.162,762 763.702,761.988 762.229,761.964Z" style="fill:rgb(180,69,141);"/>
        </g>
        <g transform="matrix(14.6959,0,0,14.714,8.90059,21.1024)">
            <path d="M0.403,0.013C0.601,0.013 0.764,-0.145 0.764,-0.347C0.764,-0.55 0.601,-0.708 0.403,-0.708C0.205,-0.708 0.042,-0.55 0.042,-0.347C0.042,-0.145 0.205,0.013 0.403,0.013ZM0.403,-0.158C0.298,-0.158 0.218,-0.239 0.218,-0.347C0.218,-0.456 0.298,-0.537 0.403,-0.537C0.508,-0.537 0.587,-0.456 0.587,-0.347C0.587,-0.239 0.508,-0.158 0.403,-0.158Z" style="fill:white;fill-rule:nonzero;"/>
        </g>
        <g transform="matrix(14.6959,0,0,14.714,18.2345,21.1024)">
            <path d="M0.403,0.013C0.601,0.013 0.764,-0.145 0.764,-0.347C0.764,-0.55 0.601,-0.708 0.403,-0.708C0.205,-0.708 0.042,-0.55 0.042,-0.347C0.042,-0.145 0.205,0.013 0.403,0.013ZM0.403,-0.158C0.298,-0.158 0.218,-0.239 0.218,-0.347C0.218,-0.456 0.298,-0.537 0.403,-0.537C0.508,-0.537 0.587,-0.456 0.587,-0.347C0.587,-0.239 0.508,-0.158 0.403,-0.158Z" style="fill:white;fill-rule:nonzero;"/>
        </g>
        <g id="Rounded-Rectangle-2" serif:id="Rounded Rectangle 2" transform="matrix(0.03125,0,0,0.03125,0,0)">
            <path d="M290.516,337.625C298.648,337.625 305.25,344.227 305.25,352.359L305.25,402.266C305.25,410.398 298.648,417 290.516,417L170.813,417L170.813,465.875L259.556,465.875C267.873,465.875 274.625,472.627 274.625,480.944L274.625,530.118C274.625,538.435 267.873,545.188 259.556,545.188L170.813,545.188L170.813,668.279C170.813,677.887 163.012,685.688 153.404,685.688L96.596,685.688C86.988,685.688 79.188,677.887 79.188,668.279L79.188,355.034C79.188,345.426 86.988,337.625 96.596,337.625L290.516,337.625Z" style="fill:white;"/>
        </g>
    </g>
    <g transform="matrix(0.222912,0,0,0.222912,-7.57924,6.40136)">
        <path d="M151.636,77.164C156.035,77.164 159.611,80.734 159.611,85.14L159.611,89.127L87.834,89.127L87.834,85.14C87.834,80.734 91.404,77.164 95.809,77.164L151.636,77.164ZM159.611,125.016C159.611,129.415 156.035,132.991 151.636,132.991L95.809,132.991C91.404,132.991 87.834,129.415 87.834,125.016L87.834,101.09L159.611,101.09L159.611,125.016ZM101.791,117.041C100.694,117.041 99.797,117.938 99.797,119.034C99.797,120.131 100.694,121.028 101.791,121.028L109.766,121.028C110.863,121.028 111.76,120.131 111.76,119.034C111.76,117.938 110.863,117.041 109.766,117.041L101.791,117.041ZM117.741,121.028L133.692,121.028C134.788,121.028 135.686,120.131 135.686,119.034C135.686,117.938 134.788,117.041 133.692,117.041L117.741,117.041C116.645,117.041 115.748,117.938 115.748,119.034C115.748,120.131 116.645,121.028 117.741,121.028Z" style="fill:rgb(119,119,119);fill-rule:nonzero;"/>
    </g>
</svg>
