<?xml version="1.0" encoding="UTF-8" standalone="no"?>
<!DOCTYPE svg PUBLIC "-//W3C//DTD SVG 1.1//EN" "http://www.w3.org/Graphics/SVG/1.1/DTD/svg11.dtd">
<svg width="100%" height="100%" viewBox="0 0 40 40" version="1.1" xmlns="http://www.w3.org/2000/svg" xmlns:xlink="http://www.w3.org/1999/xlink" xml:space="preserve" xmlns:serif="http://www.serif.com/" style="fill-rule:evenodd;clip-rule:evenodd;stroke-linejoin:round;stroke-miterlimit:2;">
    <path d="M0,4C0,1.791 1.791,0 4,0L36,0C38.209,0 40,1.791 40,4L40,36C40,38.209 38.209,40 36,40L4,40C1.791,40 0,38.209 0,36L0,4Z" style="fill:rgb(240,240,240);fill-rule:nonzero;"/>
    <g transform="matrix(0.9375,0,0,0.9375,5,-2.67578)">
        <g id="Rounded-Rectangle-3" serif:id="Rounded Rectangle 3" transform="matrix(0.03125,0,0,0.03125,0,0)">
            <path d="M762.229,761.964C761.69,761.988 761.148,762 760.603,762L36.835,762C16.505,762 0,745.495 0,725.165L0,298.835C0,278.505 16.505,262 36.835,262L760.603,262C761.148,262 761.69,262.012 762.229,262.036C763.702,262.012 765.162,262 766.625,262C908.674,262 1024,374.021 1024,512C1024,649.979 908.674,762 766.625,762C765.162,762 763.702,761.988 762.229,761.964Z" style="fill:rgb(180,69,141);"/>
        </g>
        <g transform="matrix(14.6959,0,0,14.714,8.90059,21.1024)">
            <path d="M0.403,0.013C0.601,0.013 0.764,-0.145 0.764,-0.347C0.764,-0.55 0.601,-0.708 0.403,-0.708C0.205,-0.708 0.042,-0.55 0.042,-0.347C0.042,-0.145 0.205,0.013 0.403,0.013ZM0.403,-0.158C0.298,-0.158 0.218,-0.239 0.218,-0.347C0.218,-0.456 0.298,-0.537 0.403,-0.537C0.508,-0.537 0.587,-0.456 0.587,-0.347C0.587,-0.239 0.508,-0.158 0.403,-0.158Z" style="fill:white;fill-rule:nonzero;"/>
        </g>
        <g transform="matrix(14.6959,0,0,14.714,18.2345,21.1024)">
            <path d="M0.403,0.013C0.601,0.013 0.764,-0.145 0.764,-0.347C0.764,-0.55 0.601,-0.708 0.403,-0.708C0.205,-0.708 0.042,-0.55 0.042,-0.347C0.042,-0.145 0.205,0.013 0.403,0.013ZM0.403,-0.158C0.298,-0.158 0.218,-0.239 0.218,-0.347C0.218,-0.456 0.298,-0.537 0.403,-0.537C0.508,-0.537 0.587,-0.456 0.587,-0.347C0.587,-0.239 0.508,-0.158 0.403,-0.158Z" style="fill:white;fill-rule:nonzero;"/>
        </g>
        <g id="Rounded-Rectangle-2" serif:id="Rounded Rectangle 2" transform="matrix(0.03125,0,0,0.03125,0,0)">
            <path d="M290.516,337.625C298.648,337.625 305.25,344.227 305.25,352.359L305.25,402.266C305.25,410.398 298.648,417 290.516,417L170.813,417L170.813,465.875L259.556,465.875C267.873,465.875 274.625,472.627 274.625,480.944L274.625,530.118C274.625,538.435 267.873,545.188 259.556,545.188L170.813,545.188L170.813,668.279C170.813,677.887 163.012,685.688 153.404,685.688L96.596,685.688C86.988,685.688 79.188,677.887 79.188,668.279L79.188,355.034C79.188,345.426 86.988,337.625 96.596,337.625L290.516,337.625Z" style="fill:white;"/>
        </g>
    </g>
    <g transform="matrix(0.222912,0,0,0.222912,-7.57924,6.40136)">
        <path d="M151.636,81.152C156.035,81.152 159.611,84.722 159.611,89.127L159.611,121.028C159.611,125.427 156.035,129.004 151.636,129.004L95.809,129.004C91.404,129.004 87.834,125.427 87.834,121.028L87.834,89.127C87.834,84.722 91.404,81.152 95.809,81.152L151.636,81.152ZM121.729,97.102C120.632,97.102 119.735,98 119.735,99.096C119.735,100.193 120.632,101.09 121.729,101.09L149.642,101.09C150.739,101.09 151.636,100.193 151.636,99.096C151.636,98 150.739,97.102 149.642,97.102L121.729,97.102ZM121.729,113.053L149.642,113.053C150.739,113.053 151.636,112.156 151.636,111.059C151.636,109.963 150.739,109.065 149.642,109.065L121.729,109.065C120.632,109.065 119.735,109.963 119.735,111.059C119.735,112.156 120.632,113.053 121.729,113.053ZM108.283,93.115C108.283,91.732 107.162,90.61 105.666,90.61C104.395,90.61 103.274,91.732 103.274,93.115L103.274,93.863C102.576,94.012 101.803,94.224 101.292,94.498C99.431,95.345 97.812,96.916 97.418,99.196C97.198,100.467 97.315,101.701 97.843,102.81C98.36,103.906 99.174,104.679 100,105.24C101.442,106.224 103.348,106.797 104.806,107.234L105.081,107.308C106.825,107.844 107.997,108.23 108.732,108.766C109.043,108.991 109.155,109.165 109.193,109.277C109.243,109.377 109.317,109.601 109.23,110.1C109.155,110.536 108.919,110.91 108.233,111.196C107.473,111.52 106.24,111.682 104.644,111.433C103.897,111.308 102.563,110.86 101.38,110.461C101.105,110.361 100.831,110.274 100.582,110.187C99.279,109.751 97.867,110.461 97.432,111.769C96.997,113.078 97.703,114.486 99.009,114.81C99.16,114.972 99.347,115.034 99.561,115.109C100.433,115.446 102.09,115.969 103.274,116.243L103.274,117.041C103.274,118.424 104.395,119.545 105.666,119.545C107.162,119.545 108.283,118.424 108.283,117.041L108.283,116.355C108.944,116.231 109.592,115.932 110.19,115.782C112.159,114.947 113.729,113.327 114.14,110.959C114.364,109.663 114.265,108.417 113.766,107.283C113.28,106.162 112.495,105.339 111.66,104.741C110.152,103.632 108.134,103.034 106.626,102.573L106.414,102.548C104.757,102.012 103.56,101.638 102.8,101.115C102.476,100.891 102.376,100.741 102.352,100.679C102.327,100.629 102.252,100.479 102.327,100.056C102.376,99.807 102.563,99.395 103.348,99.046C104.046,98.685 105.392,98.486 106.912,98.61C107.461,98.81 109.143,99.134 109.629,99.258C110.95,99.62 112.321,98.822 112.67,97.489C113.031,96.168 112.233,94.797 110.9,94.448C110.352,94.299 109.106,94.049 108.283,93.9L108.283,93.115Z" style="fill:rgb(119,119,119);fill-rule:nonzero;"/>
    </g>
</svg>
