<?xml version="1.0" encoding="UTF-8" standalone="no"?>
<!DOCTYPE svg PUBLIC "-//W3C//DTD SVG 1.1//EN" "http://www.w3.org/Graphics/SVG/1.1/DTD/svg11.dtd">
<svg width="100%" height="100%" viewBox="0 0 40 40" version="1.1" xmlns="http://www.w3.org/2000/svg" xmlns:xlink="http://www.w3.org/1999/xlink" xml:space="preserve" xmlns:serif="http://www.serif.com/" style="fill-rule:evenodd;clip-rule:evenodd;stroke-linejoin:round;stroke-miterlimit:2;">
    <path d="M0,4C0,1.791 1.791,0 4,0L36,0C38.209,0 40,1.791 40,4L40,36C40,38.209 38.209,40 36,40L4,40C1.791,40 0,38.209 0,36L0,4Z" style="fill:rgb(240,240,240);fill-rule:nonzero;"/>
    <g transform="matrix(0.9375,0,0,0.9375,5,-2.67578)">
        <g id="Rounded-Rectangle-3" serif:id="Rounded Rectangle 3" transform="matrix(0.03125,0,0,0.03125,0,0)">
            <path d="M762.229,761.964C761.69,761.988 761.148,762 760.603,762L36.835,762C16.505,762 0,745.495 0,725.165L0,298.835C0,278.505 16.505,262 36.835,262L760.603,262C761.148,262 761.69,262.012 762.229,262.036C763.702,262.012 765.162,262 766.625,262C908.674,262 1024,374.021 1024,512C1024,649.979 908.674,762 766.625,762C765.162,762 763.702,761.988 762.229,761.964Z" style="fill:rgb(180,69,141);"/>
        </g>
        <g transform="matrix(14.6959,0,0,14.714,8.90059,21.1024)">
            <path d="M0.403,0.013C0.601,0.013 0.764,-0.145 0.764,-0.347C0.764,-0.55 0.601,-0.708 0.403,-0.708C0.205,-0.708 0.042,-0.55 0.042,-0.347C0.042,-0.145 0.205,0.013 0.403,0.013ZM0.403,-0.158C0.298,-0.158 0.218,-0.239 0.218,-0.347C0.218,-0.456 0.298,-0.537 0.403,-0.537C0.508,-0.537 0.587,-0.456 0.587,-0.347C0.587,-0.239 0.508,-0.158 0.403,-0.158Z" style="fill:white;fill-rule:nonzero;"/>
        </g>
        <g transform="matrix(14.6959,0,0,14.714,18.2345,21.1024)">
            <path d="M0.403,0.013C0.601,0.013 0.764,-0.145 0.764,-0.347C0.764,-0.55 0.601,-0.708 0.403,-0.708C0.205,-0.708 0.042,-0.55 0.042,-0.347C0.042,-0.145 0.205,0.013 0.403,0.013ZM0.403,-0.158C0.298,-0.158 0.218,-0.239 0.218,-0.347C0.218,-0.456 0.298,-0.537 0.403,-0.537C0.508,-0.537 0.587,-0.456 0.587,-0.347C0.587,-0.239 0.508,-0.158 0.403,-0.158Z" style="fill:white;fill-rule:nonzero;"/>
        </g>
        <g id="Rounded-Rectangle-2" serif:id="Rounded Rectangle 2" transform="matrix(0.03125,0,0,0.03125,0,0)">
            <path d="M290.516,337.625C298.648,337.625 305.25,344.227 305.25,352.359L305.25,402.266C305.25,410.398 298.648,417 290.516,417L170.813,417L170.813,465.875L259.556,465.875C267.873,465.875 274.625,472.627 274.625,480.944L274.625,530.118C274.625,538.435 267.873,545.188 259.556,545.188L170.813,545.188L170.813,668.279C170.813,677.887 163.012,685.688 153.404,685.688L96.596,685.688C86.988,685.688 79.188,677.887 79.188,668.279L79.188,355.034C79.188,345.426 86.988,337.625 96.596,337.625L290.516,337.625Z" style="fill:white;"/>
        </g>
    </g>
    <g transform="matrix(0.222912,0,0,0.222912,-8.69035,6.40136)">
        <path d="M118.564,91.943C117.006,93.501 114.489,93.501 112.931,91.943C111.374,90.386 111.374,87.869 112.931,86.311L124.894,74.345C126.452,72.787 128.969,72.787 130.527,74.345L142.49,86.311C144.047,87.869 144.047,90.386 142.49,91.943C140.932,93.501 138.415,93.501 136.857,91.943L131.698,86.797L131.698,121.028C131.698,125.427 135.274,129.004 139.673,129.004L147.649,129.004C149.854,129.004 151.636,130.785 151.636,132.991C151.636,135.197 149.854,136.979 147.649,136.979L139.673,136.979C130.863,136.979 123.723,129.838 123.723,121.028C123.723,116.629 120.146,113.053 115.748,113.053L101.454,113.053L106.601,118.212C108.159,119.77 108.159,122.287 106.601,123.845C105.043,125.402 102.526,125.402 100.968,123.845L89.003,111.882L88.994,111.882C88.28,111.159 87.837,110.174 87.834,109.078L88.137,107.545C88.331,106.959 88.62,106.623 89.002,106.249L100.968,94.286C102.526,92.729 105.043,92.729 106.601,94.286C108.159,95.844 108.159,98.361 106.601,99.919L101.454,104.966L115.748,104.966C118.651,104.966 121.38,105.85 123.723,107.209L123.723,86.797L118.564,91.943ZM87.834,109.053C87.836,108.517 87.943,108.006 88.137,107.545C87.936,108.019 87.836,108.542 87.834,109.053ZM87.834,109.078L87.834,108.953L87.834,109.078Z" style="fill:rgb(119,119,119);fill-rule:nonzero;"/>
    </g>
</svg>
