<?xml version="1.0" encoding="UTF-8" standalone="no"?>
<!DOCTYPE svg PUBLIC "-//W3C//DTD SVG 1.1//EN" "http://www.w3.org/Graphics/SVG/1.1/DTD/svg11.dtd">
<svg width="100%" height="100%" viewBox="0 0 40 40" version="1.1" xmlns="http://www.w3.org/2000/svg" xmlns:xlink="http://www.w3.org/1999/xlink" xml:space="preserve" xmlns:serif="http://www.serif.com/" style="fill-rule:evenodd;clip-rule:evenodd;stroke-linejoin:round;stroke-miterlimit:2;">
    <path d="M0,4C0,1.791 1.791,0 4,0L36,0C38.209,0 40,1.791 40,4L40,36C40,38.209 38.209,40 36,40L4,40C1.791,40 0,38.209 0,36L0,4Z" style="fill:rgb(240,240,240);fill-rule:nonzero;"/>
    <g transform="matrix(0.9375,0,0,0.9375,5,-2.67578)">
        <g id="Rounded-Rectangle-3" serif:id="Rounded Rectangle 3" transform="matrix(0.03125,0,0,0.03125,0,0)">
            <path d="M762.229,761.964C761.69,761.988 761.148,762 760.603,762L36.835,762C16.505,762 0,745.495 0,725.165L0,298.835C0,278.505 16.505,262 36.835,262L760.603,262C761.148,262 761.69,262.012 762.229,262.036C763.702,262.012 765.162,262 766.625,262C908.674,262 1024,374.021 1024,512C1024,649.979 908.674,762 766.625,762C765.162,762 763.702,761.988 762.229,761.964Z" style="fill:rgb(180,69,141);"/>
        </g>
        <g transform="matrix(14.6959,0,0,14.714,8.90059,21.1024)">
            <path d="M0.403,0.013C0.601,0.013 0.764,-0.145 0.764,-0.347C0.764,-0.55 0.601,-0.708 0.403,-0.708C0.205,-0.708 0.042,-0.55 0.042,-0.347C0.042,-0.145 0.205,0.013 0.403,0.013ZM0.403,-0.158C0.298,-0.158 0.218,-0.239 0.218,-0.347C0.218,-0.456 0.298,-0.537 0.403,-0.537C0.508,-0.537 0.587,-0.456 0.587,-0.347C0.587,-0.239 0.508,-0.158 0.403,-0.158Z" style="fill:white;fill-rule:nonzero;"/>
        </g>
        <g transform="matrix(14.6959,0,0,14.714,18.2345,21.1024)">
            <path d="M0.403,0.013C0.601,0.013 0.764,-0.145 0.764,-0.347C0.764,-0.55 0.601,-0.708 0.403,-0.708C0.205,-0.708 0.042,-0.55 0.042,-0.347C0.042,-0.145 0.205,0.013 0.403,0.013ZM0.403,-0.158C0.298,-0.158 0.218,-0.239 0.218,-0.347C0.218,-0.456 0.298,-0.537 0.403,-0.537C0.508,-0.537 0.587,-0.456 0.587,-0.347C0.587,-0.239 0.508,-0.158 0.403,-0.158Z" style="fill:white;fill-rule:nonzero;"/>
        </g>
        <g id="Rounded-Rectangle-2" serif:id="Rounded Rectangle 2" transform="matrix(0.03125,0,0,0.03125,0,0)">
            <path d="M290.516,337.625C298.648,337.625 305.25,344.227 305.25,352.359L305.25,402.266C305.25,410.398 298.648,417 290.516,417L170.813,417L170.813,465.875L259.556,465.875C267.873,465.875 274.625,472.627 274.625,480.944L274.625,530.118C274.625,538.435 267.873,545.188 259.556,545.188L170.813,545.188L170.813,668.279C170.813,677.887 163.012,685.688 153.404,685.688L96.596,685.688C86.988,685.688 79.188,677.887 79.188,668.279L79.188,355.034C79.188,345.426 86.988,337.625 96.596,337.625L290.516,337.625Z" style="fill:white;"/>
        </g>
    </g>
    <g transform="matrix(0.222912,0,0,0.222912,-4.91257,6.40136)">
        <path d="M127.71,73.177L95.809,73.177C92.507,73.177 89.828,75.856 89.828,79.158L89.828,130.997C89.828,134.3 92.507,136.979 95.809,136.979L127.71,136.979C131.013,136.979 133.692,134.3 133.692,130.997L133.692,79.158C133.692,75.856 131.013,73.177 127.71,73.177ZM117.741,128.891C117.741,130.1 116.844,130.997 115.748,130.997L107.66,130.997C106.676,130.997 105.778,130.1 105.778,129.004C105.778,127.907 106.676,127.01 107.772,127.01L115.748,127.01C116.844,127.01 117.741,127.907 117.741,128.891ZM125.717,121.028L97.803,121.028L97.803,81.152L125.717,81.152L125.717,121.028Z" style="fill:rgb(119,119,119);fill-rule:nonzero;"/>
    </g>
    <g transform="matrix(0.0312768,0,0,0.0312768,17.5,25.3244)">
        <path d="M26.666,0C21.856,0 17.593,1.1 13.336,3.574C9.073,6.047 6.046,9.073 3.574,13.335C1.1,17.593 0,21.855 0,26.665L0,133.197C0,138.143 1.1,142.27 3.574,146.527C6.047,150.79 9.073,153.816 13.335,156.289C17.593,158.762 21.855,159.863 26.665,159.863L133.197,159.863C138.143,159.863 142.27,158.763 146.527,156.289C150.79,153.816 153.816,150.79 156.289,146.528C158.762,142.27 159.863,138.143 159.863,133.198L159.863,26.665C159.863,21.855 158.763,17.592 156.289,13.335C153.816,9.072 150.79,6.045 146.528,3.573C142.27,1.1 138.143,0 133.198,0L26.665,0L26.666,0ZM130.86,122.335C130.86,123.989 130.448,125.225 129.623,126.598C128.935,127.975 127.975,128.935 126.598,129.623C125.225,130.448 123.988,130.86 122.335,130.86L37.528,130.86C36.015,130.86 34.638,130.448 33.265,129.623C31.888,128.935 30.928,127.975 30.239,126.598C29.415,125.225 29.139,123.988 29.139,122.335L29.139,37.528C29.139,36.015 29.415,34.638 30.239,33.265C30.929,31.888 31.889,30.928 33.265,30.239C34.638,29.415 36.015,29.139 37.528,29.139L122.335,29.139C123.989,29.139 125.225,29.415 126.598,30.239C127.975,30.929 128.935,31.889 129.623,33.265C130.448,34.638 130.86,36.015 130.86,37.528L130.86,122.335Z" style="fill:rgb(119,119,119);"/>
        <path d="M62.957,101.716C60.343,101.716 58.147,99.52 58.147,96.906L58.147,62.956C58.147,60.343 60.343,58.146 62.957,58.146L96.906,58.146C99.52,58.146 101.716,60.343 101.716,62.956L101.716,96.906C101.716,99.52 99.52,101.716 96.906,101.716L62.956,101.716L62.957,101.716Z" style="fill:rgb(119,119,119);"/>
    </g>
</svg>
