<?xml version="1.0" encoding="UTF-8" standalone="no"?>
<!DOCTYPE svg PUBLIC "-//W3C//DTD SVG 1.1//EN" "http://www.w3.org/Graphics/SVG/1.1/DTD/svg11.dtd">
<svg width="100%" height="100%" viewBox="0 0 40 40" version="1.1" xmlns="http://www.w3.org/2000/svg" xmlns:xlink="http://www.w3.org/1999/xlink" xml:space="preserve" xmlns:serif="http://www.serif.com/" style="fill-rule:evenodd;clip-rule:evenodd;stroke-linejoin:round;stroke-miterlimit:2;">
    <path d="M0,4C0,1.791 1.791,0 4,0L36,0C38.209,0 40,1.791 40,4L40,36C40,38.209 38.209,40 36,40L4,40C1.791,40 0,38.209 0,36L0,4Z" style="fill:rgb(240,240,240);fill-rule:nonzero;"/>
    <g transform="matrix(0.9375,0,0,0.9375,5,-2.67578)">
        <g id="Rounded-Rectangle-3" serif:id="Rounded Rectangle 3" transform="matrix(0.03125,0,0,0.03125,0,0)">
            <path d="M762.229,761.964C761.69,761.988 761.148,762 760.603,762L36.835,762C16.505,762 0,745.495 0,725.165L0,298.835C0,278.505 16.505,262 36.835,262L760.603,262C761.148,262 761.69,262.012 762.229,262.036C763.702,262.012 765.162,262 766.625,262C908.674,262 1024,374.021 1024,512C1024,649.979 908.674,762 766.625,762C765.162,762 763.702,761.988 762.229,761.964Z" style="fill:rgb(180,69,141);"/>
        </g>
        <g transform="matrix(14.6959,0,0,14.714,8.90059,21.1024)">
            <path d="M0.403,0.013C0.601,0.013 0.764,-0.145 0.764,-0.347C0.764,-0.55 0.601,-0.708 0.403,-0.708C0.205,-0.708 0.042,-0.55 0.042,-0.347C0.042,-0.145 0.205,0.013 0.403,0.013ZM0.403,-0.158C0.298,-0.158 0.218,-0.239 0.218,-0.347C0.218,-0.456 0.298,-0.537 0.403,-0.537C0.508,-0.537 0.587,-0.456 0.587,-0.347C0.587,-0.239 0.508,-0.158 0.403,-0.158Z" style="fill:white;fill-rule:nonzero;"/>
        </g>
        <g transform="matrix(14.6959,0,0,14.714,18.2345,21.1024)">
            <path d="M0.403,0.013C0.601,0.013 0.764,-0.145 0.764,-0.347C0.764,-0.55 0.601,-0.708 0.403,-0.708C0.205,-0.708 0.042,-0.55 0.042,-0.347C0.042,-0.145 0.205,0.013 0.403,0.013ZM0.403,-0.158C0.298,-0.158 0.218,-0.239 0.218,-0.347C0.218,-0.456 0.298,-0.537 0.403,-0.537C0.508,-0.537 0.587,-0.456 0.587,-0.347C0.587,-0.239 0.508,-0.158 0.403,-0.158Z" style="fill:white;fill-rule:nonzero;"/>
        </g>
        <g id="Rounded-Rectangle-2" serif:id="Rounded Rectangle 2" transform="matrix(0.03125,0,0,0.03125,0,0)">
            <path d="M290.516,337.625C298.648,337.625 305.25,344.227 305.25,352.359L305.25,402.266C305.25,410.398 298.648,417 290.516,417L170.813,417L170.813,465.875L259.556,465.875C267.873,465.875 274.625,472.627 274.625,480.944L274.625,530.118C274.625,538.435 267.873,545.188 259.556,545.188L170.813,545.188L170.813,668.279C170.813,677.887 163.012,685.688 153.404,685.688L96.596,685.688C86.988,685.688 79.188,677.887 79.188,668.279L79.188,355.034C79.188,345.426 86.988,337.625 96.596,337.625L290.516,337.625Z" style="fill:white;"/>
        </g>
    </g>
    <g transform="matrix(0.0670505,0,0,0.0670505,12.5052,20.1157)">
        <path d="M107.187,92.442C107.187,89.663 109.504,88.591 113.218,88.591C118.626,88.591 125.492,90.249 130.901,93.165L130.901,76.429C125.006,74.074 119.125,73.177 113.23,73.177C98.813,73.177 89.205,80.703 89.205,93.289C89.205,112.966 116.221,109.776 116.221,118.262C116.221,121.552 113.367,122.611 109.405,122.611C103.523,122.611 95.922,120.181 89.953,116.941L89.953,132.954C96.092,135.602 102.706,136.976 109.392,136.991C124.171,136.991 134.352,130.636 134.352,117.851C134.352,96.641 107.187,100.442 107.187,92.442Z" style="fill:rgb(119,119,119);fill-rule:nonzero;"/>
    </g>
    <g transform="matrix(0.222912,0,0,0.222912,-4.02368,6.40136)">
        <path d="M87.834,81.152C87.834,76.747 91.404,73.177 95.809,73.177L119.735,73.177C124.134,73.177 127.71,76.747 127.71,81.152L127.71,129.004C127.71,133.402 124.134,136.979 119.735,136.979L95.809,136.979C91.404,136.979 87.834,133.402 87.834,129.004L87.834,81.152ZM95.809,102.087C95.809,103.744 97.149,105.078 98.8,105.078L116.744,105.078C118.402,105.078 119.735,103.744 119.735,102.087L119.735,84.163C119.735,82.506 118.402,81.172 116.744,81.172L98.8,81.172C97.149,81.172 95.809,82.506 95.809,84.163L95.809,102.087ZM97.803,117.041C99.454,117.041 100.794,115.707 100.794,114.05C100.794,112.393 99.454,111.059 97.803,111.059C96.152,111.059 94.812,112.393 94.812,114.05C94.812,115.707 96.152,117.041 97.803,117.041ZM97.803,121.028C96.152,121.028 94.812,122.362 94.812,124.019C94.812,125.676 96.152,127.01 97.803,127.01C99.454,127.01 100.794,125.676 100.794,124.019C100.794,122.362 99.454,121.028 97.803,121.028ZM107.772,117.041C109.43,117.041 110.763,115.707 110.763,114.05C110.763,112.393 109.43,111.059 107.772,111.059C106.115,111.059 104.782,112.393 104.782,114.05C104.782,115.707 106.115,117.041 107.772,117.041ZM107.772,121.028C106.115,121.028 104.782,122.362 104.782,124.019C104.782,125.676 106.115,127.01 107.772,127.01C109.43,127.01 110.763,125.676 110.763,124.019C110.763,122.362 109.43,121.028 107.772,121.028ZM117.741,117.041C119.399,117.041 120.732,115.707 120.732,114.05C120.732,112.393 119.399,111.059 117.741,111.059C116.084,111.059 114.751,112.393 114.751,114.05C114.751,115.707 116.084,117.041 117.741,117.041ZM117.741,121.028C116.084,121.028 114.751,122.362 114.751,124.019C114.751,125.676 116.084,127.01 117.741,127.01C119.399,127.01 120.732,125.676 120.732,124.019C120.732,122.362 119.399,121.028 117.741,121.028Z" style="fill:rgb(119,119,119);fill-rule:nonzero;"/>
    </g>
</svg>
